<?xml version="1.0" encoding="UTF-8"?>
<svg width="44px" height="45px" viewBox="0 0 44 45" version="1.1" xmlns="http://www.w3.org/2000/svg" xmlns:xlink="http://www.w3.org/1999/xlink">
    <!-- Generator: Sketch 49 (51002) - http://www.bohemiancoding.com/sketch -->
    <title>avocado</title>
    <desc>Created with Sketch.</desc>
    <defs></defs>
    <g id="Page-1" stroke="none" stroke-width="1" fill="none" fill-rule="evenodd">
        <g id="Landing-Page" transform="translate(-279.000000, -858.000000)" fill="#FFFFFF">
            <path d="M322.042483,859.049667 C320.772169,858.066775 319.121098,857.760572 317.390843,858.188579 C315.930994,858.549762 314.562121,859.402392 313.475447,860.616205 C313.318764,860.490172 313.162923,860.364138 312.995289,860.244025 C309.327553,857.615084 305.214197,857.986418 301.476543,861.239606 L289.192914,870.049267 C286.329654,872.103022 284.046796,874.499351 282.406676,877.171432 C277.870444,884.56681 277.171266,894.843197 284.611193,900.175516 C287.011142,901.895155 289.618317,902.643743 292.236444,902.643743 C297.73552,902.643743 303.274189,899.338958 306.994152,894.791599 C308.977122,892.366511 310.492569,889.419525 311.496689,886.03269 L315.775153,871.578587 C317.313344,867.740061 316.922478,864.343922 314.711223,861.795338 C315.577193,860.815829 316.647862,860.113763 317.793503,859.830399 C319.016643,859.529271 320.159756,859.726357 321.014775,860.388668 C321.382897,860.673724 321.911071,860.604363 322.195796,860.234721 C322.478837,859.865925 322.410604,859.334723 322.042483,859.049667 L322.042483,859.049667 L322.042483,859.049667 Z M314.186418,871.022009 L309.882683,885.550548 C308.942584,888.719996 307.533277,891.468204 305.69267,893.718199 C300.697339,899.824483 292.190955,903.529362 285.590884,898.798451 C278.991655,894.069232 279.715262,884.785888 283.842097,878.058742 C285.363441,875.579518 287.492985,873.347286 290.172605,871.425486 L302.516886,862.566765 C303.919454,861.347876 305.80555,860.208499 307.961208,860.208499 C309.234891,860.208499 310.601236,860.606901 312.015597,861.620244 C315.825696,864.351535 315.313527,868.200211 314.186418,871.022009 L314.186418,871.022009 Z M311.036748,862.997309 C308.367236,861.083967 306.210736,862.284247 304.453525,863.708679 C302.478979,865.311589 300.382288,866.701342 298.591381,867.850024 L291.880116,872.158849 C289.555139,873.974916 287.663146,876.036284 286.255524,878.287125 C282.328335,884.564272 281.274513,893.011904 286.85867,897.014527 C288.473519,898.171667 290.257686,898.680876 292.090711,898.680876 C296.597461,898.680876 301.398202,895.60109 304.692762,891.500347 C306.354783,889.431367 307.681537,886.963985 308.657859,884.093127 L311.081395,874.097566 C311.42256,872.688359 311.87155,871.241933 312.454479,869.67455 C313.317921,867.35181 313.743325,864.936872 311.036748,862.997309 L311.036748,862.997309 Z M310.876695,869.0816 C310.27018,870.711577 309.802657,872.221443 309.444644,873.696627 L307.042168,883.617752 C306.150927,886.228084 304.919363,888.522064 303.381171,890.437098 C299.241701,895.590094 292.573397,899.031909 287.83752,895.636616 C283.101642,892.242169 284.173996,884.791809 287.681679,879.186277 C288.984845,877.103763 290.745426,875.187883 292.850541,873.538451 L299.497785,869.275302 C301.328284,868.102091 303.473833,866.67935 305.513243,865.024842 C307.426295,863.474375 308.571935,863.309432 310.058742,864.374373 C311.574189,865.461307 311.780572,866.648898 310.876695,869.0816 L310.876695,869.0816 Z M301.439478,876.51335 C297.942746,874.009596 291.132922,878.84624 288.738869,882.212774 C286.087048,885.94472 286.499815,890.821965 289.659594,893.08634 C290.725209,893.850154 291.983729,894.240943 293.318906,894.240943 C293.932161,894.240943 294.561421,894.158894 295.194893,893.992259 C297.154276,893.477128 298.931704,892.210872 300.198648,890.426101 C301.480755,888.622722 302.580907,885.784852 303.002941,883.19482 C303.525219,879.983079 302.970088,877.610434 301.439478,876.51335 L301.439478,876.51335 Z M301.340077,882.922453 C300.957635,885.275643 299.971205,887.83607 298.828933,889.443209 L298.828091,889.443209 C297.789433,890.905706 296.347273,891.940196 294.768647,892.355514 C293.245619,892.753916 291.77903,892.526379 290.640128,891.709275 C288.235967,889.987099 287.999257,886.168028 290.111111,883.195666 C291.955088,880.601405 296.429826,877.519927 299.127979,877.519927 C299.649414,877.519927 300.104301,877.634964 300.461472,877.890415 C301.413364,878.573026 301.741894,880.454225 301.340077,882.922453 L301.340077,882.922453 Z M290.958549,888.912007 C291.656402,888.912007 292.222123,888.343949 292.222123,887.643213 C292.222123,886.942477 291.656402,886.374419 290.958549,886.374419 C290.260696,886.374419 289.694974,886.942477 289.694974,887.643213 C289.694974,888.343949 290.260696,888.912007 290.958549,888.912007 L290.958549,888.912007 Z M294.349983,886.198479 C295.047836,886.198479 295.613557,885.630421 295.613557,884.929685 C295.613557,884.228949 295.047836,883.660891 294.349983,883.660891 C293.65213,883.660891 293.086408,884.228949 293.086408,884.929685 C293.086408,885.630421 293.65213,886.198479 294.349983,886.198479 L294.349983,886.198479 Z M294.698729,890.856646 C295.396582,890.856646 295.962304,890.288587 295.962304,889.587851 C295.962304,888.887116 295.396582,888.319057 294.698729,888.319057 C294.000876,888.319057 293.435155,888.887116 293.435155,889.587851 C293.435155,890.288587 294.000876,890.856646 294.698729,890.856646 L294.698729,890.856646 Z" id="avocado"></path>
        </g>
    </g>
</svg>