<?xml version="1.0" encoding="UTF-8"?>
<svg width="49px" height="50px" viewBox="0 0 49 50" version="1.1" xmlns="http://www.w3.org/2000/svg" xmlns:xlink="http://www.w3.org/1999/xlink">
    <!-- Generator: Sketch 49 (51002) - http://www.bohemiancoding.com/sketch -->
    <title>baguette</title>
    <desc>Created with Sketch.</desc>
    <defs></defs>
    <g id="Page-1" stroke="none" stroke-width="1" fill="none" fill-rule="evenodd">
        <g id="Landing-Page" transform="translate(-169.000000, -854.000000)" fill="#FFFFFF">
            <path d="M216.305562,855.01404 C215.617581,854.32369 214.640365,853.988568 213.472554,854.000297 C210.429724,854.068997 206.028488,856.697188 202.50332,860.546059 C201.874691,860.863586 200.053173,861.822034 199.192153,862.684972 C198.980659,862.896936 198.785885,863.119792 198.59947,863.346837 C198.593618,863.353539 198.588602,863.360242 198.583587,863.367782 C197.559558,864.62365 196.91421,866.096509 196.724451,867.641419 C194.89541,867.867626 193.162502,868.728889 191.779853,870.114616 C191.570032,870.324905 191.376093,870.546085 191.19135,870.771454 C191.167943,870.800777 191.145373,870.830101 191.121967,870.859424 C190.127195,872.101049 189.498567,873.55045 189.312152,875.071064 C187.667017,875.273812 186.103805,875.994323 184.800572,877.142952 C184.769642,877.166411 184.73286,877.17814 184.705274,877.206625 C184.649266,877.262758 184.602453,877.320567 184.548117,877.3767 C184.488765,877.43367 184.426069,877.485614 184.367553,877.543423 C182.985741,878.928312 182.124721,880.665917 181.899852,882.49987 C180.069975,882.726077 178.337066,883.587339 176.955254,884.972229 C176.860792,885.067739 176.782214,885.164086 176.695276,885.260434 C176.671033,885.279703 176.641776,885.288919 176.619205,885.31154 C175.615238,886.316904 174.996641,887.346565 174.750038,888.385442 C171.194776,892.125398 167.087792,898.555542 169.9743,901.449317 C171.0209,902.498247 172.784738,903.068792 174.867906,903.068792 C175.413776,903.068792 175.983053,903.029415 176.565705,902.948986 C179.481471,902.548515 182.296089,901.174517 184.288139,899.178031 L213.546116,869.854897 C215.54987,867.846681 217.010261,864.94788 217.549444,861.901625 C218.081939,858.903125 217.616319,856.328554 216.305562,855.01404 L216.305562,855.01404 L216.305562,855.01404 Z M215.904309,861.607556 C215.422807,864.323716 214.132948,866.897449 212.36493,868.669405 L183.106953,897.992538 C181.368193,899.73517 178.902163,900.936581 176.34,901.288458 C174.11305,901.593419 172.081711,901.192111 171.156323,900.263824 C169.783706,898.888151 171.463113,894.7494 174.856203,890.767318 C175.263307,891.992187 176.212101,893.155897 177.703422,894.237502 C177.851384,894.34474 178.022752,894.395846 178.192448,894.395846 C178.452426,894.395846 178.706553,894.275203 178.871233,894.048996 C179.141243,893.674497 179.057649,893.15087 178.683146,892.879422 C177.19099,891.797817 176.389321,890.692754 176.301547,889.596068 C176.289008,889.438561 176.297367,889.278541 176.314086,889.11852 C176.492142,888.885611 176.647627,888.63427 176.753792,888.346065 L176.754628,888.345227 C177.085661,887.44375 177.486913,886.809533 178.13644,886.157721 C179.258275,885.033389 180.714486,884.323769 182.196612,884.158722 C182.537676,885.234462 183.367767,886.523004 185.314676,887.591204 C185.441739,887.661579 185.57967,887.694254 185.715092,887.694254 C186.011016,887.694254 186.296908,887.536747 186.44905,887.258596 C186.67141,886.853099 186.522613,886.342876 186.118016,886.121696 C184.660969,885.321593 183.837566,884.330471 183.672885,883.17514 C183.477275,881.803655 184.223771,880.140614 185.710913,878.580624 C186.754168,877.597042 188.056566,876.953609 189.395746,876.756725 C189.631482,878.487627 190.528448,879.939542 191.950385,880.858612 C192.090824,880.948257 192.247145,880.991823 192.40263,880.991823 C192.676819,880.991823 192.945992,880.856937 193.106493,880.608109 C193.35644,880.21853 193.244424,879.700767 192.856547,879.449426 C191.522383,878.589002 191.126146,877.310513 191.027505,876.391442 C190.86366,874.859937 191.407023,873.181816 192.461982,871.860599 C192.466998,871.853897 192.472013,871.847194 192.477029,871.840492 C192.628334,871.652824 192.788835,871.472696 192.960204,871.300946 C194.055288,870.203423 195.46803,869.497155 196.911702,869.310324 C197.178368,871.009391 198.07617,872.42863 199.477209,873.321729 C199.616811,873.409699 199.772297,873.452427 199.925274,873.452427 C200.201135,873.452427 200.47198,873.315027 200.631645,873.064523 C200.87992,872.674107 200.76456,872.156344 200.375011,871.907516 C199.325903,871.238111 198.668853,870.142264 198.524235,868.819371 C198.332804,867.07255 199.024128,865.22268 200.372503,863.871302 C200.837287,863.406321 201.841254,862.794724 202.740727,862.312987 C202.724009,862.583598 202.727352,862.837452 202.754102,863.05947 C202.923799,864.470332 203.819929,865.703579 205.345523,866.629352 C205.480946,866.711457 205.629744,866.750834 205.777705,866.750834 C206.060254,866.750834 206.336951,866.606732 206.493272,866.347012 C206.732352,865.950731 206.606124,865.43632 206.210724,865.196708 C205.465063,864.744294 204.54887,863.971839 204.414284,862.859235 C204.290564,861.832088 204.850646,860.661676 206.036012,859.47367 C206.043535,859.46613 206.045207,859.456076 206.05273,859.448536 C208.701831,857.19233 211.529824,855.722822 213.508499,855.678418 C213.537757,855.677581 213.567015,855.677581 213.595437,855.677581 C214.260847,855.677581 214.77328,855.853519 215.121032,856.202046 C216.020505,857.098496 216.327296,859.221491 215.904309,861.607556 L215.904309,861.607556 L215.904309,861.607556 Z" id="baguette"></path>
        </g>
    </g>
</svg>