<?xml version="1.0" encoding="UTF-8"?>
<svg width="41px" height="41px" viewBox="0 0 41 41" version="1.1" xmlns="http://www.w3.org/2000/svg" xmlns:xlink="http://www.w3.org/1999/xlink">
    <!-- Generator: Sketch 49 (51002) - http://www.bohemiancoding.com/sketch -->
    <title>si-glyph-hat-chef</title>
    <desc>Created with Sketch.</desc>
    <defs></defs>
    <g id="Page-1" stroke="none" stroke-width="1" fill="none" fill-rule="evenodd">
        <g id="Landing-Page" transform="translate(-932.000000, -1895.000000)" fill="#FFAB00">
            <g id="si-glyph-hat-chef" transform="translate(932.000000, 1895.000000)">
                <g id="Group">
                    <path d="M7.83753669,38.018159 L33.2068967,38.018159 L33.2068967,40.555095 L7.83753669,40.555095 L7.83753669,38.018159 L7.83753669,38.018159 Z M31.809045,8.36645104 C30.6648868,3.6705825 26.415519,0.182295496 21.3391101,0.182295496 C16.1130219,0.182295496 11.7621767,3.87607432 10.7702347,8.78250854 C10.0903359,8.60492302 9.39014152,8.48061316 8.65696702,8.48061316 C4.01437413,8.48061316 0.254634979,12.2403523 0.254634979,16.8829452 C0.254634979,21.5230011 3.26597801,25.2852772 7.9085709,25.2852772 C7.95677268,25.2852772 7.99990059,25.2725926 8.05063931,25.2725926 L8.05063931,35.3721348 L33.1028823,35.3721348 L33.1028823,26.7871434 C37.8799328,26.4319723 40.7415966,22.4515197 40.7415966,17.5856765 C40.7390597,12.5904495 36.763681,8.53642575 31.809045,8.36645104 L31.809045,8.36645104 L31.809045,8.36645104 Z M20.2685231,4.51791912 C18.132423,5.89801231 16.7599406,8.07216646 16.7599406,10.5253836 L13.4593869,10.5253836 C13.4593869,6.97874705 16.3337354,4.00292112 20.2177844,3.16826917 C20.9205157,3.02112688 21.3644795,3.80757704 20.2685231,4.51791912 L20.2685231,4.51791912 L20.2685231,4.51791912 Z" id="Shape"></path>
                </g>
            </g>
        </g>
    </g>
</svg>