<?xml version="1.0" encoding="UTF-8"?>
<svg width="14px" height="10px" viewBox="0 0 14 10" version="1.1" xmlns="http://www.w3.org/2000/svg" xmlns:xlink="http://www.w3.org/1999/xlink">
    <!-- Generator: Sketch 49 (51002) - http://www.bohemiancoding.com/sketch -->
    <title>Shape</title>
    <desc>Created with Sketch.</desc>
    <defs></defs>
    <g id="Page-1" stroke="none" stroke-width="1" fill="none" fill-rule="evenodd">
        <g id="Login" transform="translate(-576.000000, -344.000000)" fill="#BFBFBF" fill-rule="nonzero">
            <g id="email-(1)-copy-3" transform="translate(576.000000, 344.000000)">
                <g id="Group" transform="translate(0.000000, 0.054780)">
                    <path d="M12.7004975,0.00654798884 L1.22985074,0.00654798884 C0.551243783,0.00654798884 0,0.529876514 0,1.17177167 L0,8.16311366 C0,8.8050088 0.551243783,9.32833732 1.22985074,9.32833732 L12.7024876,9.32833732 C13.3791045,9.32833732 13.9323383,8.8050088 13.9323383,8.16311366 L13.9323383,1.17177167 C13.9303483,0.529876514 13.3771144,0.00654798884 12.7004975,0.00654798884 L12.7004975,0.00654798884 L12.7004975,0.00654798884 Z M0.819900494,8.16311365 L0.819900494,1.32100206 L4.43781095,4.75125699 L4.43383085,4.75125699 L0.819900494,8.17946767 L0.819900494,8.16311365 L0.819900494,8.16311365 L0.819900494,8.16311365 Z M1.41094527,0.783363774 L12.5174129,0.783363774 L6.96517413,6.04731278 L1.41094527,0.783363774 L1.41094527,0.783363774 L1.41094527,0.783363774 Z M5.01492537,5.29911654 L6.96517413,7.14712039 L8.92338309,5.28889529 L12.3641791,8.55152154 L1.58407961,8.55152154 L5.01492537,5.29911654 L5.01492537,5.29911654 L5.01492537,5.29911654 Z M9.51442786,4.75125699 L9.49253731,4.75125699 L13.1124378,1.32100205 L13.1124378,8.16106939 L9.51442786,4.75125699 L9.51442786,4.75125699 L9.51442786,4.75125699 Z" id="Shape"></path>
                </g>
            </g>
        </g>
    </g>
</svg>