<?xml version="1.0" encoding="UTF-8"?>
<svg width="9px" height="19px" viewBox="0 0 9 19" version="1.1" xmlns="http://www.w3.org/2000/svg" xmlns:xlink="http://www.w3.org/1999/xlink">
    <!-- Generator: Sketch 49 (51002) - http://www.bohemiancoding.com/sketch -->
    <title>Shape Copy</title>
    <desc>Created with Sketch.</desc>
    <defs></defs>
    <g id="Page-1" stroke="none" stroke-width="1" fill="none" fill-rule="evenodd">
        <g id="Login" transform="translate(-686.000000, -549.000000)" fill="#3363A4">
            <g id="Group-11-Copy" transform="translate(669.000000, 537.000000)">
                <path d="M25.7952955,15.0301611 C25.7952955,15.0301611 23.5656611,14.8079615 23.0074341,15.6626115 C22.7021103,16.1293484 22.8833147,17.4968869 22.8563555,18.4788443 L25.8133325,18.4788443 C25.563596,19.6267722 25.3844456,20.4054443 25.2006522,21.3991483 L22.8397306,21.3991483 L22.8397306,30.7962121 L18.7431275,30.7962121 C18.7439833,27.8991445 18.7425498,24.5195496 18.7431275,21.4358428 L17,21.4358428 L17,18.4788443 L18.7239137,18.4788443 C18.8122158,16.3168433 18.8457651,14.1749548 19.9194481,13.084326 C21.1264509,11.8584303 22.2775453,12.0055079 25.7952955,12.0055079 L25.7952955,15.0301611 Z" id="Shape-Copy"></path>
            </g>
        </g>
    </g>
</svg>