<?xml version="1.0" encoding="UTF-8"?>
<svg width="19px" height="18px" viewBox="0 0 19 18" version="1.1" xmlns="http://www.w3.org/2000/svg" xmlns:xlink="http://www.w3.org/1999/xlink">
    <!-- Generator: Sketch 49 (51002) - http://www.bohemiancoding.com/sketch -->
    <title>google</title>
    <desc>Created with Sketch.</desc>
    <defs></defs>
    <g id="Page-1" stroke="none" stroke-width="1" fill="none" fill-rule="evenodd">
        <g id="Login" transform="translate(-740.000000, -550.000000)" fill="#C83C26" fill-rule="nonzero">
            <g id="Group-11-Copy" transform="translate(669.000000, 537.000000)">
                <g id="google" transform="translate(71.000000, 13.000000)">
                    <g id="Group" transform="translate(0.088730, 0.000000)">
                        <path d="M9.31544345,7.71062367 L18.1030235,7.71062367 C18.1999895,8.23402637 18.2484725,8.73399254 18.2484725,9.21052357 C18.2484725,10.9057231 17.8808086,12.4192937 17.1454801,13.7512364 C16.4101516,15.083179 15.3617021,16.1241251 14.0001325,16.8740754 C12.6385629,17.624025 11.0769999,17.9989998 9.31544345,17.9989998 C8.04679984,17.9989998 6.83875996,17.7626878 5.69132382,17.2900632 C4.54388841,16.8174379 3.55402345,16.1788089 2.72172822,15.3741747 C1.88943299,14.5695413 1.22884967,13.6125735 0.739977563,12.5032727 C0.251105454,11.393972 0.00666905413,10.226081 0.00666905413,8.99960033 C0.00666905413,7.773119 0.251105454,6.60522865 0.739977563,5.4959272 C1.22884967,4.38662646 1.88943299,3.42965865 2.72172822,2.6250252 C3.55402345,1.82039105 4.54388841,1.18176202 5.69132382,0.709137422 C6.83875996,0.236512125 8.04679984,0.000200179687 9.31544345,0.000200179687 C11.7396032,0.000200179687 13.8203406,0.785304246 15.5576556,2.35551166 L13.0244083,4.71082314 C12.0305026,3.78119762 10.7941812,3.31638521 9.31544345,3.31638521 C8.27305476,3.31638521 7.30945131,3.57027439 6.42463235,4.07805342 C5.53981411,4.58583177 4.83882782,5.27523892 4.3216735,6.14627485 C3.80451988,7.01731007 3.54594271,7.96841858 3.54594271,8.99960033 C3.54594271,10.0307814 3.80451988,10.9818899 4.3216735,11.8529251 C4.83882782,12.723961 5.53981411,13.4133682 6.42463235,13.9211472 C7.30945131,14.4289256 8.27305476,14.6828148 9.31544345,14.6828148 C10.0184498,14.6828148 10.6648923,14.5890714 11.2547711,14.401584 C11.8446499,14.2140959 12.329482,13.9797368 12.7092674,13.6985054 C13.0890521,13.4172746 13.4203545,13.096983 13.7031731,12.7376318 C13.9859918,12.3782814 14.1940652,12.0384596 14.3273942,11.7181687 C14.4607231,11.3978777 14.5516291,11.0932105 14.6001121,10.8041675 L9.31544345,10.8041675 L9.31544345,7.71062367 Z" id="Shape"></path>
                    </g>
                </g>
            </g>
        </g>
    </g>
</svg>