<?xml version="1.0" encoding="UTF-8"?>
<svg width="26px" height="31px" viewBox="0 0 26 31" version="1.1" xmlns="http://www.w3.org/2000/svg" xmlns:xlink="http://www.w3.org/1999/xlink">
    <!-- Generator: Sketch 49 (51002) - http://www.bohemiancoding.com/sketch -->
    <title>lock copy 2</title>
    <desc>Created with Sketch.</desc>
    <defs></defs>
    <g id="Page-1" stroke="none" stroke-width="1" fill="none" fill-rule="evenodd">
        <g id="Forgot-Password" transform="translate(-707.000000, -166.000000)" fill="#484848" fill-rule="nonzero">
            <g id="lock-copy-2" transform="translate(707.000000, 166.000000)">
                <g id="Group" transform="translate(0.052596, 0.019571)">
                    <path d="M18.2060035,14.0045635 L7.00235994,14.0045635 L7.00235994,9.80320168 C7.00235994,8.25687162 7.54941037,6.93664414 8.6435173,5.84251318 C9.73762419,4.74838222 11.0578517,4.20133179 12.6041998,4.20135582 C14.1505479,4.20137986 15.4707814,4.74843634 16.5648883,5.84251318 C17.6589952,6.93659001 18.2060456,8.25681749 18.2060456,9.80320168 L18.2060456,14.0045635 L18.2060035,14.0045635 Z M3.60834912e-05,16.1052445 L3.60834912e-05,28.7093721 C3.60834912e-05,29.2928945 0.204267451,29.7888841 0.612736179,30.1973529 C1.02120491,30.6058216 1.51719451,30.810053 2.10071701,30.810053 L23.1075683,30.810053 C23.6910908,30.810053 24.1870804,30.6058216 24.5955491,30.1973529 C25.0040119,29.7888842 25.2082492,29.2928946 25.2082492,28.7093721 L25.2082492,16.1052445 C25.2082492,15.521722 25.0040178,15.0257324 24.5955491,14.6172636 C24.1870804,14.2087949 23.6910847,14.0045635 23.1075683,14.0045635 L22.4073293,14.0045635 L22.4073293,9.80320168 C22.4073293,7.11898625 21.4445096,4.81407399 19.5188704,2.88845882 C17.5932252,0.962843652 15.288313,2.40658539e-05 12.6041216,0 C9.91993022,-2.40658539e-05 7.61501796,0.962789558 5.68937872,2.88845882 C3.76373952,4.81412808 2.8009199,7.11904037 2.8009199,9.80320168 L2.8009199,14.0045635 L2.10068092,14.0045635 C1.51715846,14.0045635 1.02116885,14.2087949 0.612700096,14.6172636 C0.204237361,15.0257324 0,15.521722 0,16.1052445 L3.60834912e-05,16.1052445 Z" id="Shape"></path>
                </g>
            </g>
        </g>
    </g>
</svg>