<?xml version="1.0" encoding="UTF-8"?>
<svg width="49px" height="41px" viewBox="0 0 49 41" version="1.1" xmlns="http://www.w3.org/2000/svg" xmlns:xlink="http://www.w3.org/1999/xlink">
    <!-- Generator: Sketch 49 (51002) - http://www.bohemiancoding.com/sketch -->
    <title>Shape</title>
    <desc>Created with Sketch.</desc>
    <defs></defs>
    <g id="Page-1" stroke="none" stroke-width="1" fill="none" fill-rule="evenodd">
        <g id="Landing-Page" transform="translate(-142.000000, -1893.000000)" fill="#FFAB00">
            <g id="food" transform="translate(142.000000, 1893.000000)">
                <g id="Group" transform="translate(0.450602, 0.000000)">
                    <path d="M46.4925154,34.6947265 L40.5088399,34.6947265 C40.501119,34.6947265 40.4908245,34.6921424 40.4831037,34.6921424 L7.55873334,34.6921424 C7.55101247,34.6921424 7.54071798,34.6947265 7.5329971,34.6947265 L1.54932158,34.6947265 C0.692304824,34.6947265 0,35.7542192 0,37.0592041 C0,38.364189 0.694878448,39.4236816 1.54932158,39.4236816 L5.1832785,39.4236816 C5.65939892,40.3643044 6.54472553,41 7.55873334,41 L40.4805301,41 C41.4971115,41 42.3824381,40.3643044 42.8559849,39.4236816 L46.4873682,39.4236816 C47.3443849,39.4236816 48.0366898,38.364189 48.0366898,37.0592041 C48.0366898,35.7542192 47.3443849,34.6947265 46.4873682,34.6947265 L46.4925154,34.6947265 Z M40.6967145,11.0732082 C40.905178,8.89737202 44.4130273,9.16870551 44.4130273,7.26678695 C44.4130273,5.3648684 41.9912473,2.73422562 40.261772,3.18903223 C38.5322968,3.64125471 39.8422713,6.45278648 38.8051009,9.17128963 C35.7167522,12.3652724 35.5391722,10.6907572 32.9964318,13.8976606 L32.9964318,13.1327586 L28.2609639,18.6291998 C28.2609639,18.6291998 30.5978143,14.4661689 33.1019504,12.2024723 C33.36446,10.9259129 34.0361758,7.63114907 34.0361758,7.26678695 C34.0361758,6.81456447 37.4951263,5.45531289 37.1476871,3.18903223 C36.8002479,0.922751558 34.028455,-0.891306627 32.9964318,0.467944948 C31.9644086,1.82978065 32.3684676,5.63620189 30.922091,7.26678695 C27.452846,9.24364523 26.0939725,11.0809606 21.6210142,14.2956164 C18.6201688,14.7271658 14.1343424,15.9623793 11.2055584,19.5052194 C7.05430306,24.9448098 6.01713264,31.7436518 6.01713264,31.7436518 L6.01713264,33.1029034 L40.261772,33.1029034 C45.2134244,22.7689736 38.2749344,20.2158547 40.6941408,11.0732082 L40.6967145,11.0732082 Z" id="Shape"></path>
                </g>
            </g>
        </g>
    </g>
</svg>