<?xml version="1.0" encoding="UTF-8"?>
<svg width="42px" height="41px" viewBox="0 0 42 41" version="1.1" xmlns="http://www.w3.org/2000/svg" xmlns:xlink="http://www.w3.org/1999/xlink">
    <!-- Generator: Sketch 49 (51002) - http://www.bohemiancoding.com/sketch -->
    <title>meat</title>
    <desc>Created with Sketch.</desc>
    <defs></defs>
    <g id="Page-1" stroke="none" stroke-width="1" fill="none" fill-rule="evenodd">
        <g id="Landing-Page" transform="translate(-388.000000, -863.000000)" fill="#FFFFFF">
            <path d="M396.266237,883.858646 C395.020984,883.858646 394.007616,884.873158 394.007616,886.119817 C394.007616,887.366476 395.020984,888.380988 396.266237,888.380988 C397.51149,888.380988 398.524858,887.366476 398.524858,886.119817 C398.524858,884.872404 397.51149,883.858646 396.266237,883.858646 L396.266237,883.858646 L396.266237,883.858646 L396.266237,883.858646 L396.266237,883.858646 L396.266237,883.858646 L396.266237,883.858646 L396.266237,883.858646 L396.266237,883.858646 Z M428.528375,867.348328 C428.058582,866.641335 427.387019,866.127295 426.586714,865.864246 C426.439151,865.816007 426.334502,865.71124 426.286318,865.562003 C426.023565,864.761548 425.510858,864.08998 424.803157,863.618903 C423.457772,862.72574 421.640335,862.806389 420.38153,863.814871 C419.428392,864.579901 418.915685,865.715008 418.973657,866.930011 C419.01657,867.827696 418.744783,868.617599 418.20949,869.153496 L413.577059,873.791158 L412.745887,873.803972 C411.459226,873.822815 410.257639,874.326302 409.362473,875.22248 C406.455628,878.133361 402.59941,879.929484 398.210157,880.41639 C395.599944,880.706573 393.14407,881.896703 391.292754,883.767445 C387.038266,888.068947 386.886185,895.205203 390.955467,899.674031 C393.106427,902.036955 396.044139,903.378583 399.227289,903.452448 C399.319892,903.454709 399.411743,903.456217 399.504346,903.456217 C402.585858,903.456217 405.473128,902.260057 407.659473,900.071243 C409.334616,898.394208 410.439835,896.278506 410.856174,893.951007 C411.593237,889.835675 413.677191,885.963043 416.88368,882.753687 C417.092226,882.544906 417.280444,882.311251 417.476944,882.018053 L418.262191,880.844505 L415.962162,880.844505 C416.191036,880.70582 416.410875,880.549045 416.605116,880.354584 L423.00153,873.951701 C423.53607,873.415804 424.31153,873.149739 425.22326,873.186672 C426.445927,873.234156 427.569967,872.731423 428.334134,871.776455 C429.342231,870.515475 429.421283,868.695232 428.528375,867.348328 L428.528375,867.348328 L428.528375,867.348328 L428.528375,867.348328 L428.528375,867.348328 L428.528375,867.348328 L428.528375,867.348328 L428.528375,867.348328 Z M396.266237,886.873541 C395.850651,886.873541 395.513364,886.535873 395.513364,886.119817 C395.513364,885.703762 395.850651,885.366094 396.266237,885.366094 C396.681823,885.366094 397.019111,885.703762 397.019111,886.119817 C397.019111,886.535873 396.681823,886.873541 396.266237,886.873541 L396.266237,886.873541 L396.266237,886.873541 L396.266237,886.873541 L396.266237,886.873541 L396.266237,886.873541 L396.266237,886.873541 L396.266237,886.873541 Z M409.373013,893.683435 C409.011634,895.707183 408.050214,897.546269 406.594157,899.004724 C404.63518,900.96516 402.052823,902.003791 399.261168,901.945001 C396.493605,901.880934 393.939105,900.713416 392.067461,898.658011 C388.529708,894.772566 388.661461,888.568666 392.361835,884.827935 C393.994065,883.178034 396.073501,882.170305 398.374283,881.914793 C403.106846,881.389447 407.274001,879.444086 410.42553,876.288245 C410.783898,875.930226 411.214542,875.663408 411.687346,875.499096 L410.185364,880.509852 L412.829456,879.627995 L412.829456,881.090219 L412.829456,882.350445 L415.177668,882.350445 C412.114979,885.645725 410.114593,889.545492 409.373013,893.683435 L409.373013,893.683435 L409.373013,893.683435 L409.373013,893.683435 L409.373013,893.683435 L409.373013,893.683435 L409.373013,893.683435 L409.373013,893.683435 Z M427.158145,870.832793 C426.699645,871.406376 426.016789,871.719925 425.29403,871.679224 C423.959938,871.617419 422.77341,872.044027 421.935461,872.884429 L415.5398,879.287312 C415.216065,879.612167 414.789185,879.796075 414.335203,879.820194 L414.335203,877.536411 L412.462053,878.162002 L412.943139,876.557324 L419.274053,870.219261 C420.112754,869.380367 420.541139,868.186469 420.477898,866.857654 C420.442513,866.13031 420.750438,865.450451 421.322622,864.99068 C422.06345,864.395992 423.17695,864.346246 423.969726,864.874607 C424.346162,865.124843 424.622467,865.472309 424.791111,865.878567 C424.030708,866.061721 423.332042,866.469486 422.802772,867.060405 C422.524961,867.370186 422.550559,867.847293 422.85999,868.124663 C423.003789,868.254304 423.183726,868.317617 423.36291,868.317617 C423.568444,868.317617 423.774731,868.233199 423.923047,868.06738 C424.361973,867.57746 424.989116,867.288784 425.644116,867.27597 C425.74726,867.273709 425.845134,867.251097 425.933973,867.21115 C425.996461,867.239038 426.052927,867.274463 426.118427,867.296321 C426.594243,867.452342 426.994019,867.759107 427.274841,868.1827 C427.801099,868.976371 427.75141,870.091128 427.158145,870.832793 L427.158145,870.832793 L427.158145,870.832793 L427.158145,870.832793 L427.158145,870.832793 L427.158145,870.832793 L427.158145,870.832793 L427.158145,870.832793 Z M407.987726,890.813255 C407.569881,890.734868 407.186668,891.013745 407.114392,891.423017 C406.973605,892.21292 406.726662,892.983226 406.379588,893.715091 C406.201157,894.091199 406.361519,894.540419 406.737203,894.719051 C406.841852,894.768043 406.951019,894.792162 407.059433,894.792162 C407.341007,894.792162 407.611289,894.633127 407.74003,894.361786 C408.144323,893.509325 408.432674,892.610132 408.5968,891.688328 C408.669829,891.277549 408.396536,890.886366 407.987726,890.813255 L407.987726,890.813255 L407.987726,890.813255 L407.987726,890.813255 L407.987726,890.813255 L407.987726,890.813255 L407.987726,890.813255 L407.987726,890.813255 Z M405.098197,895.729041 C403.493823,897.676663 401.143352,899.032612 398.649835,899.449421 C398.239519,899.51801 397.962461,899.906178 398.030973,900.316204 C398.091956,900.684775 398.411174,900.946317 398.772553,900.946317 C398.813961,900.946317 398.854616,900.943302 398.896777,900.935765 C401.744145,900.460165 404.428892,898.911263 406.259881,896.687024 C406.524892,896.365938 406.478967,895.891092 406.15749,895.626535 C405.837519,895.361224 405.361703,895.407955 405.098197,895.729041 L405.098197,895.729041 L405.098197,895.729041 L405.098197,895.729041 L405.098197,895.729041 L405.098197,895.729041 L405.098197,895.729041 L405.098197,895.729041 Z" id="meat"></path>
        </g>
    </g>
</svg>