<?xml version="1.0" encoding="UTF-8"?>
<svg width="17px" height="16px" viewBox="0 0 17 16" version="1.1" xmlns="http://www.w3.org/2000/svg" xmlns:xlink="http://www.w3.org/1999/xlink">
    <!-- Generator: Sketch 49 (51002) - http://www.bohemiancoding.com/sketch -->
    <title>search copy</title>
    <desc>Created with Sketch.</desc>
    <defs></defs>
    <g id="Page-1" stroke="none" stroke-width="1" fill="none" fill-rule="evenodd">
        <g id="Landing-Page" transform="translate(-1047.000000, -15.000000)" fill="#555555">
            <g id="search-copy" transform="translate(1047.000000, 15.000000)">
                <g id="Group" transform="translate(0.047668, 0.000000)">
                    <path d="M16.1629318,13.9201165 L11.8553096,9.68427184 C12.4851722,8.70803883 12.8504759,7.55130097 12.8504759,6.3121165 C12.8505549,2.83161164 9.97101366,0 6.43151664,0 C2.89209859,0 0.0125573277,2.83161166 0.0125573277,6.3121165 C0.0125573277,9.79262134 2.8920986,12.624233 6.43151664,12.624233 C7.62916,12.624233 8.75097817,12.2997281 9.71154928,11.7358447 L14.0478429,16 L16.1629318,13.9201165 L16.1629318,13.9201165 Z M2.40547451,6.3121165 C2.40547451,4.12908737 4.21153619,2.35304853 6.43151662,2.35304853 C8.65149705,2.35304853 10.4575982,4.12908736 10.4575982,6.3121165 C10.4575982,8.49514564 8.65149707,10.2711456 6.43151662,10.2711456 C4.21153617,10.2711456 2.40547451,8.49514562 2.40547451,6.3121165 L2.40547451,6.3121165 Z" id="Shape"></path>
                </g>
            </g>
        </g>
    </g>
</svg>