<?xml version="1.0" encoding="UTF-8"?>
<svg width="11px" height="42px" viewBox="0 0 11 42" version="1.1" xmlns="http://www.w3.org/2000/svg" xmlns:xlink="http://www.w3.org/1999/xlink">
    <!-- Generator: Sketch 49 (51002) - http://www.bohemiancoding.com/sketch -->
    <title>spoon</title>
    <desc>Created with Sketch.</desc>
    <defs></defs>
    <g id="Page-1" stroke="none" stroke-width="1" fill="none" fill-rule="evenodd">
        <g id="Landing-Page" transform="translate(-522.000000, -861.000000)" fill="#FFFFFF">
            <path d="M528.285714,881.745153 L528.285714,876.575593 C530.983857,876.046678 533,872.839729 533,868.830508 C533,864.439729 530.583929,861 527.5,861 C524.416071,861 522,864.439729 522,868.830508 C522,872.839729 524.016143,876.046678 526.714286,876.575593 L526.714286,881.745153 C525.362857,882.063356 524.357143,883.168169 524.357143,884.491525 L524.357143,900.152542 C524.357143,901.722915 525.766714,903 527.5,903 C529.233286,903 530.642857,901.722915 530.642857,900.152542 L530.642857,884.491525 C530.642857,883.168169 529.637143,882.063356 528.285714,881.745153 L528.285714,881.745153 L528.285714,881.745153 L528.285714,881.745153 L528.285714,881.745153 L528.285714,881.745153 L528.285714,881.745153 L528.285714,881.745153 L528.285714,881.745153 L528.285714,881.745153 L528.285714,881.745153 Z M523.571429,868.830508 C523.571429,865.357322 525.370714,862.423729 527.5,862.423729 C529.629286,862.423729 531.428571,865.357322 531.428571,868.830508 C531.428571,872.303695 529.629286,875.237288 527.5,875.237288 C525.370714,875.237288 523.571429,872.303695 523.571429,868.830508 L523.571429,868.830508 L523.571429,868.830508 L523.571429,868.830508 L523.571429,868.830508 L523.571429,868.830508 L523.571429,868.830508 L523.571429,868.830508 L523.571429,868.830508 L523.571429,868.830508 L523.571429,868.830508 Z M529.071429,900.152542 C529.071429,900.937729 528.366643,901.576271 527.5,901.576271 C526.633357,901.576271 525.928571,900.937729 525.928571,900.152542 L525.928571,884.491525 C525.928571,883.706339 526.633357,883.067797 527.5,883.067797 C528.366643,883.067797 529.071429,883.706339 529.071429,884.491525 L529.071429,900.152542 L529.071429,900.152542 L529.071429,900.152542 L529.071429,900.152542 L529.071429,900.152542 L529.071429,900.152542 L529.071429,900.152542 L529.071429,900.152542 L529.071429,900.152542 L529.071429,900.152542 Z M527.5,886.627119 C527.933938,886.627119 528.285714,886.308406 528.285714,885.915254 C528.285714,885.522102 527.933938,885.20339 527.5,885.20339 C527.066062,885.20339 526.714286,885.522102 526.714286,885.915254 C526.714286,886.308406 527.066062,886.627119 527.5,886.627119 L527.5,886.627119 L527.5,886.627119 L527.5,886.627119 L527.5,886.627119 L527.5,886.627119 L527.5,886.627119 L527.5,886.627119 L527.5,886.627119 L527.5,886.627119 Z M527.5,889.474576 C527.933938,889.474576 528.285714,889.155864 528.285714,888.762712 C528.285714,888.36956 527.933938,888.050847 527.5,888.050847 C527.066062,888.050847 526.714286,888.36956 526.714286,888.762712 C526.714286,889.155864 527.066062,889.474576 527.5,889.474576 L527.5,889.474576 L527.5,889.474576 L527.5,889.474576 L527.5,889.474576 L527.5,889.474576 L527.5,889.474576 L527.5,889.474576 L527.5,889.474576 L527.5,889.474576 Z" id="spoon"></path>
        </g>
    </g>
</svg>