<?xml version="1.0" encoding="UTF-8"?>
<svg width="37px" height="37px" viewBox="0 0 37 37" version="1.1" xmlns="http://www.w3.org/2000/svg" xmlns:xlink="http://www.w3.org/1999/xlink">
    <!-- Generator: Sketch 49 (51002) - http://www.bohemiancoding.com/sketch -->
    <title>Group</title>
    <desc>Created with Sketch.</desc>
    <defs></defs>
    <g id="Page-1" stroke="none" stroke-width="1" fill="none" fill-rule="evenodd">
        <g id="Landing-Page" transform="translate(-554.000000, -1899.000000)" fill="#FFAB00">
            <g id="Group" transform="translate(554.000000, 1899.000000)">
                <path d="M32.5160812,22.4832425 C30.7468057,22.5015613 29.5193965,23.3462603 28.737385,24.300872 C27.9697411,23.3340478 26.7402794,22.4832425 24.9258484,22.4832425 C23.7271745,22.4832425 22.7317005,22.8679368 21.9681617,23.6291836 C20.570393,25.0214105 20.5416577,27.1178924 20.5560253,27.1830259 C20.5211324,27.3947095 19.7986441,32.430337 28.2837772,36.623301 C28.4274539,36.6945406 28.5854982,36.7311782 28.74149,36.7311782 C28.9077445,36.7311782 29.0719464,36.6904698 29.2217806,36.6110884 C34.35309,33.9100869 37.0213708,30.639168 36.9392699,27.0771841 C36.9413224,25.2310587 35.7775414,22.4832425 32.5160812,22.4832425 L32.5160812,22.4832425 Z M28.7271224,34.5634565 C22.2000969,31.1663416 22.5654461,27.6430306 22.5962339,27.343824 C22.5941814,26.9693068 22.7419631,25.7460198 23.4254535,25.0661897 C23.7949078,24.6977788 24.285461,24.5186619 24.9279009,24.5186619 C27.1015236,24.5186619 27.65981,26.4869124 27.7131756,26.7047023 C27.8199069,27.1565654 28.2222015,27.4761262 28.6901769,27.4863033 C29.1396796,27.4374533 29.5748147,27.1891321 29.7020711,26.7433753 C29.728754,26.6538168 30.3568262,24.5410515 32.5735519,24.5186619 C34.8641684,24.5186619 34.8887987,26.9733777 34.8908512,27.1972738 C34.9483218,29.7313709 32.7644366,32.3346723 28.7271224,34.5634565 L28.7271224,34.5634565 Z M28.7353325,11.1948066 C28.7353325,5.02341504 23.6717564,0 17.4464519,0 C11.2211473,0 6.15757124,5.02137962 6.15757124,11.1948066 C6.15757124,15.5526395 8.6862805,19.3283425 12.360298,21.1765033 C5.59107469,23.3279415 0,29.4240226 0,35.6198392 C0,36.181615 0.459765319,36.6375489 1.02626187,36.6375489 C1.59275843,36.6375489 2.05252375,36.181615 2.05252375,35.6198392 C2.05252375,29.0657888 9.82132613,22.3896132 17.4464519,22.3896132 C23.6697039,22.3896132 28.7353325,17.3682336 28.7353325,11.1948066 L28.7353325,11.1948066 Z M17.4464519,20.3541938 C12.3541404,20.3541938 8.21009499,16.2446821 8.21009499,11.1948066 C8.21009499,6.14493112 12.3541404,2.03541938 17.4464519,2.03541938 C22.5387633,2.03541938 26.6828087,6.14493112 26.6828087,11.1948066 C26.6828087,16.2446821 22.5387633,20.3541938 17.4464519,20.3541938 L17.4464519,20.3541938 Z" id="Shape"></path>
            </g>
        </g>
    </g>
</svg>