<?xml version="1.0" encoding="UTF-8"?>
<svg width="26px" height="31px" viewBox="0 0 26 31" version="1.1" xmlns="http://www.w3.org/2000/svg" xmlns:xlink="http://www.w3.org/1999/xlink">
    <!-- Generator: Sketch 49 (51002) - http://www.bohemiancoding.com/sketch -->
    <title>account</title>
    <desc>Created with Sketch.</desc>
    <defs></defs>
    <g id="Page-1" stroke="none" stroke-width="1" fill="none" fill-rule="evenodd">
        <g id="Login" transform="translate(-707.000000, -166.000000)" fill="#484848">
            <g id="account" transform="translate(707.000000, 166.000000)">
                <g id="Group" transform="translate(0.181516, 0.143318)">
                    <path d="M16.3162032,18.2272828 L16.3162032,16.5234271 C18.4816249,14.9961317 19.93864,12.1417793 19.93864,8.87225547 C19.93864,3.9937418 16.695113,0.0391429093 12.6937664,0.0391429093 C8.69241988,0.0391429093 5.44811222,3.99381793 5.44811222,8.87225547 C5.44811222,12.1419316 6.90551754,14.9963601 9.0713296,16.5235794 L9.0713296,18.2271305 C3.8339597,19.7334124 0.014886383,24.1378249 0.014886383,26.5384806 C0.014886383,27.8961442 1.23709288,29.1338931 3.24475263,30.0715886 L22.142546,30.0715886 C24.1503619,29.1339692 25.3727245,27.8962204 25.3727245,26.5384806 C25.3727245,24.1379772 21.5532608,19.7336407 16.3162032,18.2272828 Z" id="Shape"></path>
                </g>
            </g>
        </g>
    </g>
</svg>